<?xml version="1.0" encoding="UTF-8"?> <svg xmlns="http://www.w3.org/2000/svg" xmlns:xlink="http://www.w3.org/1999/xlink" version="1.1" id="Layer_1" x="0px" y="0px" viewBox="0 0 420 150" style="enable-background:new 0 0 420 150;" xml:space="preserve"> <g id="Layer_x0020_1"> <g id="_698610512"> <path style="fill:#FFFFFF;" d="M27.248,54.971h23.463l2.702,7.566l-1.812,0.667c-0.795-2.162-1.844-3.688-3.18-4.61 c-1.336-0.891-3.561-1.336-6.677-1.336H34.75v10.586h3.466c1.622,0,2.766-0.381,3.497-1.144c0.731-0.731,1.081-1.971,1.081-3.688 v-0.477h2.003V75.19h-2.003v-1.081c0-1.494-0.317-2.606-0.953-3.275c-0.636-0.667-1.844-1.017-3.625-1.017H34.75v9.411 c0,1.081,0.127,1.78,0.35,2.003c0.255,0.255,0.891,0.35,1.939,0.35h4.324c3.052,0,5.436-0.572,7.217-1.685 c1.748-1.144,3.211-3.084,4.324-5.786l1.908,0.667l-3.211,9.028H27.248v-1.748h0.827c1.208,0,1.971-0.191,2.32-0.605 c0.317-0.414,0.509-1.144,0.509-2.225V59.358c0-0.795-0.064-1.336-0.222-1.685c-0.127-0.35-0.445-0.605-0.953-0.731 c-0.477-0.159-1.303-0.255-2.48-0.255L27.248,54.971L27.248,54.971L27.248,54.971z"></path> <path id="_x31_" style="fill:#FFFFFF;" d="M71.248,56.688v-1.717h10.333c4.387,0,7.535,0.255,9.474,0.763 c1.971,0.541,3.688,1.462,5.182,2.861c1.494,1.367,2.639,3.02,3.466,4.928c0.827,1.939,1.24,4.006,1.24,6.231 c0,3.783-1.24,7.089-3.688,9.888c-2.448,2.766-6.2,4.164-11.222,4.164H71.249v-1.748h1.622c0.763,0.095,1.303-0.095,1.589-0.605 c0.317-0.477,0.477-1.24,0.477-2.32V59.835c0-1.462-0.222-2.353-0.636-2.67C73.887,56.847,72.869,56.688,71.248,56.688z M78.783,81.549h6.263c1.176,0,2.734-0.222,4.705-0.636s3.592-1.685,4.864-3.752c1.272-2.098,1.908-4.673,1.908-7.725 c0-1.844-0.255-3.528-0.827-5.055c-0.541-1.494-1.303-2.797-2.289-3.847c-0.986-1.017-2.098-1.812-3.275-2.32 c-1.208-0.541-2.258-0.827-3.18-0.891c-0.891-0.064-2.194-0.064-3.942-0.064h-4.228v24.289L78.783,81.549L78.783,81.549z"></path> <path id="_x32_" style="fill:#FFFFFF;" d="M118.299,54.971h11.127v1.717h-0.7c-1.239,0-2.003,0.222-2.353,0.636 c-0.35,0.381-0.541,1.177-0.541,2.353v12.971c0,2.511,0.35,4.324,1.017,5.469c0.667,1.144,1.653,2.034,2.956,2.67 c1.272,0.667,2.575,0.986,3.942,0.986c1.462,0,2.894-0.381,4.228-1.113c1.367-0.731,2.384-1.653,3.052-2.734 c0.667-1.113,1.017-2.989,1.017-5.595V59.868c0-1.113-0.191-1.939-0.541-2.416c-0.381-0.509-1.113-0.763-2.258-0.763h-0.795 v-1.717h9.664v1.717h-0.7c-1.081,0-1.844,0.222-2.225,0.636c-0.413,0.381-0.605,1.177-0.605,2.353v13.289 c0,3.592-1.049,6.391-3.211,8.361c-2.13,2.003-4.833,2.989-8.17,2.989c-2.861,0-5.436-0.891-7.758-2.606 c-2.32-1.748-3.466-4.387-3.466-7.916V59.679c0-1.208-0.191-2.003-0.509-2.384c-0.35-0.413-1.049-0.605-2.13-0.605h-1.049v-1.719 H118.299z"></path> <path id="_x33_" style="fill:#FFFFFF;" d="M176.002,53.477h3.402l8.966,25.593c0.381,1.017,0.795,1.748,1.239,2.258 c0.445,0.477,1.081,0.731,1.908,0.731h0.445v1.748h-10.269v-1.748c1.144,0,1.908-0.095,2.289-0.255 c0.35-0.159,0.541-0.477,0.541-0.922s-0.191-1.177-0.541-2.194l-1.908-5.564h-10.46l-2.194,6.231 c-0.255,0.605-0.35,1.081-0.35,1.431c0,0.477,0.191,0.827,0.572,0.986c0.381,0.191,1.144,0.286,2.289,0.286v1.748h-8.616v-1.748 c1.081,0,1.812-0.191,2.289-0.605c0.445-0.381,0.922-1.24,1.399-2.606L176.002,53.477z M172.378,71.09h8.933l-4.483-13.893 L172.378,71.09z"></path> <path id="_x34_" style="fill:#FFFFFF;" d="M207.602,56.688v-1.717h10.333c4.387,0,7.535,0.255,9.474,0.763 c1.971,0.541,3.688,1.462,5.182,2.861c1.494,1.367,2.639,3.02,3.466,4.928c0.827,1.939,1.239,4.006,1.239,6.231 c0,3.783-1.239,7.089-3.688,9.888c-2.448,2.766-6.2,4.164-11.222,4.164h-14.783v-1.748h1.622c0.763,0.095,1.272-0.095,1.589-0.605 c0.317-0.477,0.477-1.24,0.477-2.32V59.835c0-1.462-0.222-2.353-0.636-2.67C210.241,56.846,209.224,56.688,207.602,56.688z M215.138,81.549h6.263c1.177,0,2.734-0.222,4.705-0.636c1.971-0.414,3.592-1.685,4.864-3.752 c1.272-2.098,1.908-4.673,1.908-7.725c0-1.844-0.286-3.528-0.827-5.055c-0.541-1.494-1.303-2.797-2.289-3.847 c-0.986-1.017-2.098-1.812-3.306-2.32c-1.177-0.541-2.225-0.827-3.147-0.891c-0.891-0.064-2.225-0.064-3.942-0.064h-4.228 L215.138,81.549L215.138,81.549z"></path> <path id="_x35_" style="fill:#FFFFFF;" d="M295.38,54.971h11v1.717h-0.827c-1.049,0-1.78,0.222-2.162,0.667 c-0.413,0.445-0.604,1.431-0.604,2.989v18.599c0,1.177,0.159,2.003,0.477,2.448s1.081,0.667,2.289,0.667h0.827v1.748h-11v-1.748 h0.891c1.049,0,1.748-0.191,2.13-0.541c0.381-0.381,0.572-1.239,0.572-2.575V59.93c0-1.272-0.159-2.13-0.445-2.575 c-0.317-0.445-1.081-0.667-2.258-0.667h-0.891v-1.717H295.38z"></path> <path id="_x36_" style="fill:#FFFFFF;" d="M343.068,54.971h1.462l2.225,8.87l-1.908,0.572c-1.208-2.48-2.702-4.355-4.483-5.691 c-1.812-1.336-3.752-1.971-5.85-1.971c-1.78,0-3.242,0.413-4.419,1.272c-1.144,0.858-1.717,1.908-1.717,3.147 c0,1.144,0.477,2.098,1.399,2.861c0.953,0.795,2.48,1.494,4.547,2.098l5.405,1.589c2.734,0.763,4.769,1.844,6.072,3.147 c1.336,1.303,2.003,2.925,2.003,4.833c0,2.353-1.017,4.387-3.084,6.072c-2.067,1.685-4.642,2.544-7.725,2.544 c-1.78,0-3.306-0.286-4.61-0.827c-1.303-0.509-2.606-1.336-3.974-2.448l-0.922,2.766h-1.462l-1.939-10.396l1.939-0.381 c1.017,2.83,2.544,5.023,4.578,6.613c2.003,1.558,4.133,2.32,6.391,2.32c1.875,0,3.528-0.509,4.959-1.589 c1.399-1.049,2.13-2.289,2.13-3.72c0-1.367-0.509-2.448-1.494-3.242c-0.986-0.763-2.575-1.494-4.737-2.098l-5.15-1.494 c-2.702-0.763-4.673-1.78-5.977-3.052c-1.303-1.272-1.971-2.83-1.971-4.705c0-2.034,0.953-3.847,2.861-5.341 c1.875-1.526,4.26-2.258,7.153-2.258c2.956,0,5.436,0.827,7.408,2.48L343.068,54.971z"></path> <path id="_x37_" style="fill:#FFFFFF;" d="M365.163,54.971h23.463l2.702,7.566l-1.812,0.667c-0.795-2.162-1.844-3.688-3.18-4.61 c-1.336-0.891-3.561-1.336-6.677-1.336h-6.994v10.586h3.466c1.622,0,2.766-0.381,3.497-1.144c0.731-0.731,1.081-1.971,1.081-3.688 v-0.477h2.003V75.19h-2.003v-1.081c0-1.494-0.317-2.606-0.953-3.275c-0.636-0.668-1.844-1.017-3.625-1.017h-3.466v9.411 c0,1.081,0.127,1.78,0.35,2.003c0.255,0.255,0.891,0.35,1.939,0.35h4.324c3.052,0,5.436-0.572,7.217-1.685 c1.748-1.144,3.211-3.084,4.324-5.786l1.908,0.667l-3.211,9.028h-24.352v-1.748h0.795c1.24,0,2.003-0.191,2.353-0.605 c0.317-0.414,0.509-1.144,0.509-2.225V59.358c0-0.795-0.095-1.336-0.222-1.685c-0.127-0.35-0.445-0.605-0.953-0.731 c-0.509-0.159-1.303-0.255-2.48-0.255V54.97L365.163,54.971L365.163,54.971z"></path> <path style="fill:#FFFFFF;" d="M264.859,20l21.11,7.089l-9.061,3.528c-2.48-2.003-6.008-3.656-11.445-3.433 c3.433,0.891,6.453,2.194,9.124,4.324l-9.061,3.528l-22.477-6.899L264.859,20z"></path> <path style="fill-rule:evenodd;clip-rule:evenodd;fill:#FFFFFF;" d="M265.878,26.136c2.162,0,4.228,0.605,5.945,1.717 c-1.749-0.541-3.878-0.763-6.358-0.667c4.102,1.049,7.598,2.734,10.586,5.627c0.604,1.367,0.922,2.861,0.922,4.419 c0,6.136-4.959,11.095-11.095,11.095s-11.127-4.959-11.127-11.095S259.742,26.136,265.878,26.136z"></path> <polygon style="fill-rule:evenodd;clip-rule:evenodd;fill:#FFFFFF;" points="278.053,52.999 265.528,85.65 253.001,52.999 "></polygon> <rect x="246.865" y="28.33" style="fill-rule:evenodd;clip-rule:evenodd;fill:#FFFFFF;" width="1.528" height="12.856"></rect> <rect x="19.363" y="37.39" style="fill-rule:evenodd;clip-rule:evenodd;fill:#FFFFFF;" width="206.354" height="1.368"></rect> <rect x="19.332" y="97.604" style="fill-rule:evenodd;clip-rule:evenodd;fill:#FFFFFF;" width="381.317" height="1.368"></rect> <rect x="299.958" y="37.39" style="fill-rule:evenodd;clip-rule:evenodd;fill:#FFFFFF;" width="100.71" height="1.368"></rect> <path style="fill:#FFFFFF;" d="M27.724,112.895h6.422v1.017h-0.509c-0.605,0-1.017,0.127-1.24,0.381 c-0.222,0.255-0.35,0.827-0.35,1.748v10.809c0,0.7,0.095,1.177,0.286,1.431c0.159,0.286,0.605,0.414,1.303,0.414h0.509v0.986 h-6.422v-0.986h0.541c0.605,0,1.017-0.127,1.24-0.317c0.222-0.222,0.317-0.731,0.317-1.526v-11.064 c0-0.731-0.095-1.24-0.255-1.494c-0.191-0.255-0.636-0.381-1.303-0.381h-0.541v-1.018 C27.722,112.895,27.724,112.895,27.724,112.895z"></path> <path id="_x31__00000022555527841855762930000012099445846878334897_" style="fill:#FFFFFF;" d="M49.534,112.895h5.15l7.63,12.622 v-9.602c0-0.763-0.127-1.303-0.381-1.589c-0.255-0.286-0.7-0.413-1.272-0.413h-0.445v-1.017h5.627v1.017h-0.317 c-0.667,0-1.144,0.159-1.367,0.445c-0.255,0.286-0.381,0.795-0.381,1.558v13.766h-1.464l-9.219-15.133v12.017 c0,0.827,0.127,1.367,0.317,1.685c0.222,0.286,0.827,0.445,1.812,0.445v0.986h-5.69v-0.986h0.286c0.795,0,1.303-0.159,1.494-0.445 c0.222-0.255,0.35-0.827,0.35-1.685v-10.65c0-0.636-0.031-1.081-0.095-1.336c-0.064-0.255-0.222-0.413-0.445-0.509 c-0.222-0.095-0.605-0.159-1.144-0.159h-0.446V112.895L49.534,112.895z"></path> <path id="_x32__00000007390320901377593520000004618328195062230956_" style="fill:#FFFFFF;" d="M81.898,112.323h0.827 l0.127,0.572h9.664l0.095-0.572h0.891l1.748,4.959l-1.081,0.381c-0.509-1.272-1.049-2.194-1.653-2.766 c-0.605-0.541-1.462-0.827-2.639-0.827c-0.477,0-0.795,0.064-0.891,0.191c-0.127,0.095-0.191,0.413-0.191,0.922v11.636 c0,0.858,0.159,1.367,0.477,1.558c0.317,0.222,0.891,0.317,1.685,0.317v0.986h-6.486v-0.986c0.636,0,1.113-0.064,1.399-0.159 c0.286-0.064,0.477-0.255,0.572-0.477c0.064-0.222,0.127-0.605,0.127-1.144v-11.922c0-0.381-0.064-0.636-0.159-0.731 c-0.064-0.127-0.317-0.191-0.7-0.191c-1.336,0-2.289,0.286-2.861,0.858c-0.541,0.572-1.081,1.494-1.589,2.734l-1.081-0.381 L81.898,112.323z"></path> <path id="_x33__00000109707759980751088770000016095623543200811426_" style="fill:#FFFFFF;" d="M109.843,112.895h13.67 l1.589,4.419l-1.081,0.413c-0.445-1.272-1.049-2.162-1.844-2.702c-0.763-0.541-2.067-0.795-3.878-0.795h-4.069v6.167h2.003 c0.953,0,1.622-0.222,2.034-0.667c0.445-0.413,0.636-1.144,0.636-2.13v-0.286h1.176v7.375h-1.176v-0.636 c0-0.891-0.191-1.494-0.541-1.908c-0.381-0.381-1.081-0.572-2.13-0.572h-2.003v5.469c0,0.636,0.064,1.017,0.191,1.177 c0.159,0.127,0.541,0.191,1.144,0.191h2.511c1.78,0,3.18-0.317,4.197-0.986c1.017-0.667,1.875-1.812,2.511-3.37l1.113,0.381 l-1.875,5.245h-14.18v-0.986h0.477c0.7,0,1.176-0.127,1.367-0.381c0.191-0.222,0.286-0.667,0.286-1.272v-11.572 c0-0.477-0.031-0.795-0.127-0.986c-0.064-0.191-0.255-0.35-0.541-0.445s-0.763-0.127-1.462-0.127v-1.016 C109.841,112.895,109.843,112.895,109.843,112.895z"></path> <path id="_x34__00000019644268858385960740000010484209470390461865_" style="fill:#FFFFFF;" d="M140.935,112.895h8.68 c4.26,0,6.391,1.431,6.391,4.26c0,1.399-0.509,2.511-1.494,3.306c-1.017,0.763-2.48,1.177-4.419,1.208l4.451,5.436 c0.477,0.572,0.891,0.986,1.272,1.208c0.381,0.255,0.827,0.381,1.367,0.381h0.286v0.986h-3.815l-6.167-8.011h-2.162v5.182 c0,0.795,0.095,1.272,0.286,1.494c0.159,0.222,0.605,0.35,1.367,0.35h0.445v0.986h-6.486v-0.986h0.605 c0.636,0,1.049-0.127,1.24-0.317c0.222-0.222,0.317-0.827,0.317-1.812v-11.032c0-0.572-0.095-1.017-0.286-1.24 c-0.222-0.255-0.605-0.381-1.176-0.381h-0.7v-1.016h-0.002V112.895z M145.323,114.199v6.327h3.466 c1.622,0,2.797-0.255,3.528-0.731c0.731-0.509,1.113-1.336,1.113-2.511c0-1.049-0.317-1.812-0.922-2.32 c-0.636-0.509-1.558-0.763-2.83-0.763h-4.355L145.323,114.199L145.323,114.199z"></path> <path id="_x35__00000133512321131942007330000011012972505828481202_" style="fill:#FFFFFF;" d="M171.9,112.895h5.182l7.63,12.622 v-9.602c0-0.763-0.127-1.303-0.381-1.589c-0.286-0.286-0.7-0.413-1.303-0.413h-0.414v-1.017h5.627v1.017h-0.317 c-0.667,0-1.144,0.159-1.399,0.445c-0.222,0.286-0.35,0.795-0.35,1.558v13.766h-1.462l-9.219-15.133v12.017 c0,0.827,0.095,1.367,0.317,1.685c0.222,0.286,0.827,0.445,1.812,0.445v0.986h-5.722v-0.986h0.317 c0.795,0,1.272-0.159,1.494-0.445c0.222-0.255,0.317-0.827,0.317-1.685v-10.65c0-0.636-0.031-1.081-0.095-1.336 c-0.031-0.255-0.191-0.413-0.413-0.509c-0.222-0.095-0.636-0.159-1.177-0.159h-0.445L171.9,112.895L171.9,112.895z"></path> <path id="_x36__00000154384042809075721240000009022317979240053671_" style="fill:#FFFFFF;" d="M209.86,112.037h1.971 l5.214,14.91c0.222,0.572,0.477,1.017,0.731,1.303c0.255,0.286,0.636,0.445,1.113,0.445h0.255v0.986h-5.977v-0.986 c0.667,0,1.113-0.064,1.336-0.159c0.191-0.095,0.317-0.286,0.317-0.541c0-0.255-0.127-0.667-0.317-1.272l-1.113-3.242h-6.105 l-1.272,3.625c-0.127,0.35-0.191,0.636-0.191,0.827c0,0.286,0.095,0.477,0.317,0.605c0.222,0.095,0.667,0.159,1.367,0.159v0.986 h-5.055v-0.986c0.636,0,1.081-0.127,1.336-0.35s0.541-0.731,0.827-1.526L209.86,112.037z M207.73,122.306h5.214l-2.606-8.107 L207.73,122.306z"></path> <path id="_x37__00000169521852878147220650000010605935052304576641_" style="fill:#FFFFFF;" d="M234.404,112.323h0.827 l0.127,0.572h9.633l0.095-0.572h0.891l1.748,4.959l-1.081,0.381c-0.477-1.272-1.049-2.194-1.653-2.766 c-0.572-0.541-1.462-0.827-2.606-0.827c-0.509,0-0.795,0.064-0.922,0.191c-0.095,0.095-0.159,0.413-0.159,0.922v11.636 c0,0.858,0.159,1.367,0.477,1.558c0.317,0.222,0.858,0.317,1.653,0.317v0.986h-6.486v-0.986c0.667,0,1.144-0.064,1.431-0.159 c0.286-0.064,0.477-0.255,0.541-0.477c0.095-0.222,0.127-0.605,0.127-1.144v-11.922c0-0.381-0.031-0.636-0.127-0.731 c-0.095-0.127-0.35-0.191-0.731-0.191c-1.336,0-2.289,0.286-2.83,0.858c-0.572,0.572-1.113,1.494-1.622,2.734l-1.081-0.381 L234.404,112.323z"></path> <path id="_x38_" style="fill:#FFFFFF;" d="M262.158,112.895h6.391v1.017h-0.477c-0.604,0-1.017,0.127-1.272,0.381 c-0.222,0.255-0.317,0.827-0.317,1.748v10.809c0,0.7,0.064,1.177,0.255,1.431c0.191,0.286,0.636,0.414,1.336,0.414h0.477v0.986 h-6.391v-0.986h0.509c0.605,0,1.017-0.127,1.239-0.317c0.222-0.222,0.35-0.731,0.35-1.526v-11.064c0-0.731-0.095-1.24-0.286-1.494 c-0.191-0.255-0.604-0.381-1.303-0.381h-0.509v-1.018C262.16,112.895,262.158,112.895,262.158,112.895z"></path> <path id="_x39_" style="fill:#FFFFFF;" d="M284.158,121.32c0-2.48,0.858-4.547,2.511-6.231c1.685-1.653,3.783-2.48,6.327-2.48 c2.353,0,4.355,0.827,5.913,2.48c1.589,1.653,2.384,3.688,2.384,6.136c0,2.544-0.795,4.642-2.384,6.295 c-1.622,1.653-3.656,2.48-6.167,2.48c-2.48,0-4.514-0.827-6.136-2.48C284.984,125.867,284.158,123.8,284.158,121.32z M298.718,121.225c0-2.289-0.509-4.069-1.494-5.373c-0.986-1.303-2.416-1.939-4.228-1.939c-1.939,0-3.466,0.667-4.578,1.971 c-1.081,1.303-1.653,3.18-1.653,5.564c0,2.258,0.572,4.038,1.653,5.373c1.113,1.303,2.575,1.971,4.355,1.971 s3.211-0.7,4.292-2.098C298.178,125.294,298.718,123.45,298.718,121.225z"></path> <path id="_x31_0" style="fill:#FFFFFF;" d="M316.999,112.895h5.15l7.661,12.622v-9.602c0-0.763-0.127-1.303-0.413-1.589 c-0.255-0.286-0.667-0.413-1.272-0.413h-0.413v-1.017h5.627v1.017h-0.317c-0.7,0-1.144,0.159-1.399,0.445 c-0.255,0.286-0.35,0.795-0.35,1.558v13.766h-1.462l-9.219-15.133v12.017c0,0.827,0.095,1.367,0.317,1.685 c0.222,0.286,0.795,0.445,1.78,0.445v0.986h-5.691v-0.986h0.317c0.763,0,1.272-0.159,1.494-0.445 c0.222-0.255,0.317-0.827,0.317-1.685v-10.65c0-0.636-0.031-1.081-0.095-1.336s-0.191-0.413-0.413-0.509 c-0.255-0.095-0.636-0.159-1.177-0.159h-0.445v-1.017L316.999,112.895L316.999,112.895z"></path> <path id="_x31_1" style="fill:#FFFFFF;" d="M354.957,112.037h1.971l5.214,14.91c0.222,0.572,0.445,1.017,0.731,1.303 c0.255,0.286,0.636,0.445,1.113,0.445h0.255v0.986h-5.977v-0.986c0.667,0,1.113-0.064,1.336-0.159 c0.191-0.095,0.317-0.286,0.317-0.541c0-0.255-0.127-0.667-0.317-1.272l-1.113-3.242h-6.105l-1.272,3.625 c-0.127,0.35-0.191,0.636-0.191,0.827c0,0.286,0.095,0.477,0.317,0.605c0.222,0.095,0.667,0.159,1.336,0.159v0.986h-5.023v-0.986 c0.636,0,1.081-0.127,1.336-0.35s0.541-0.731,0.827-1.526L354.957,112.037z M352.828,122.306h5.214l-2.606-8.107L352.828,122.306z "></path> <path id="_x31_2" style="fill:#FFFFFF;" d="M378.77,112.895h6.517v1.017h-0.604c-0.541,0-0.922,0.095-1.177,0.222 c-0.255,0.159-0.381,0.572-0.381,1.208v11.699c0,0.667,0.064,1.049,0.191,1.177c0.127,0.127,0.509,0.191,1.177,0.191h0.891 c1.494,0,2.67-0.317,3.528-0.986c0.858-0.668,1.653-1.78,2.32-3.338l1.081,0.35l-1.875,5.245h-11.667v-0.986h0.509 c0.636,0,1.081-0.095,1.303-0.286c0.191-0.191,0.317-0.636,0.317-1.367v-11.413c0-0.667-0.095-1.144-0.286-1.367 c-0.159-0.222-0.605-0.35-1.336-0.35h-0.509v-1.016H378.77z"></path> </g> </g> </svg> 